<svg xmlns="http://www.w3.org/2000/svg" width="32" height="32" viewBox="0 0 32 32" fill="none">
  <path d="M20.9731 4.94667L18.2131 3.82667C17.1331 3.38667 15.8931 3.90667 15.4531 5L14.6131 7.05334C14.1731 8.13334 14.6931 9.37334 15.7865 9.82667L18.8398 11.0667C18.5198 12.6 18.0265 14.4 17.2531 16.3467C16.3865 18.5467 15.3865 20.36 14.4798 21.8133L11.4265 20.5733C10.3331 20.1333 9.09312 20.6533 8.65312 21.7467L7.81312 23.8C7.37312 24.8933 7.89312 26.1333 8.98645 26.5733L11.7465 27.6933L11.7998 27.72C14.7731 28.92 18.1998 27.76 19.7465 24.96C20.7865 23.08 21.8131 20.9733 22.7598 18.6133C23.6131 16.48 24.2798 14.44 24.7865 12.5467C25.6265 9.44 23.9998 6.2 21.0265 4.98667L20.9731 4.94667Z" stroke="#FF9F34" stroke-width="1.6" stroke-miterlimit="10" stroke-linecap="round" stroke-linejoin="round"/>
</svg>